<svg width="187" height="62" viewBox="0 0 187 62" fill="none" xmlns="http://www.w3.org/2000/svg">
<path d="M145.579 60.3201C144.558 60.3201 143.622 60.0748 142.771 59.5841C141.92 59.0721 141.239 58.4001 140.728 57.5681C140.239 56.7148 139.994 55.7654 139.994 54.7201V52.7681H144.781V55.1041C144.781 55.3174 144.856 55.4988 145.005 55.6481C145.175 55.7974 145.366 55.8721 145.579 55.8721C145.792 55.8721 145.973 55.7974 146.122 55.6481C146.271 55.4988 146.345 55.3174 146.345 55.1041V49.6001C146.345 49.3868 146.271 49.2054 146.122 49.0561C145.994 48.9068 145.813 48.8321 145.579 48.8321C145.366 48.8321 145.175 48.9068 145.005 49.0561C144.856 49.2054 144.781 49.3868 144.781 49.6001V50.8481H139.994V37.6001H150.845V41.7601H144.781V44.8641H145.26C145.494 44.5014 145.834 44.2668 146.281 44.1601C146.728 44.0534 147.175 44.0001 147.622 44.0001C148.6 44.0001 149.334 44.2774 149.824 44.8321C150.334 45.3868 150.686 46.0908 150.877 46.9441C151.068 47.7974 151.164 48.6828 151.164 49.6001V54.7201C151.164 55.7654 150.909 56.7148 150.398 57.5681C149.909 58.4001 149.239 59.0721 148.388 59.5841C147.537 60.0748 146.6 60.3201 145.579 60.3201Z" fill="#F3F2F2"/>
<path d="M127.527 60.0003V58.0163C127.527 56.6509 127.623 55.4029 127.814 54.2723C128.027 53.1203 128.41 52.0536 128.963 51.0723C129.516 50.0909 130.314 49.1736 131.357 48.3203C132.336 47.4456 132.995 46.6669 133.336 45.9843C133.697 45.3016 133.878 44.7256 133.878 44.2563V42.5283C133.878 42.3149 133.804 42.1336 133.655 41.9843C133.506 41.8349 133.325 41.7603 133.112 41.7603C132.899 41.7603 132.708 41.8349 132.538 41.9843C132.389 42.1336 132.314 42.3149 132.314 42.5283V45.2163H127.527V42.8803C127.527 41.8349 127.772 40.8963 128.261 40.0643C128.772 39.2109 129.453 38.5389 130.304 38.0483C131.155 37.5363 132.091 37.2803 133.112 37.2803C134.134 37.2803 135.07 37.5363 135.921 38.0483C136.772 38.5389 137.442 39.2109 137.931 40.0643C138.442 40.8963 138.697 41.8349 138.697 42.8803V43.0083C138.697 44.1603 138.559 45.1416 138.282 45.9523C138.027 46.7416 137.623 47.4776 137.07 48.1603C136.538 48.8429 135.857 49.6003 135.027 50.4323C134.261 51.2003 133.655 52.0536 133.208 52.9923C132.761 53.9096 132.538 54.8696 132.538 55.8723H138.697V60.0003H127.527Z" fill="#F3F2F2"/>
<path d="M108.048 60.0001L110.76 37.6001H116.505L119.218 60.0001H114.75L114.463 55.8721H112.771L112.548 60.0001H108.048ZM113.026 51.0721H114.239L113.92 44.0001H113.377L113.026 51.0721Z" fill="#F3F2F2"/>
<path d="M92.8069 60.0001V37.6001H98.2644L99.7006 47.5521H99.8921L101.264 37.6001H106.754V60.0001H102.605V50.0481H102.413L101.169 60.0001H98.3921L97.1474 50.0481H96.9559V60.0001H92.8069Z" fill="#F3F2F2"/>
<path d="M90.8784 41.7604H75.5591V46.4004H88.1018V51.2004H75.5591V55.8724H90.8784V60.0004H70.7719V37.6004H90.8784V41.7604ZM75.0485 34.6244L86.3464 32.5444L86.6018 33.9204L75.3038 36.0004L75.0485 34.6244Z" fill="#F3F2F2"/>
<path d="M57.6816 60.0001V37.6001H61.5115L64.2242 46.4001H64.703V37.6001H68.8519V60.0001H65.0221L62.3093 51.2001H61.8306V60.0001H57.6816Z" fill="#F3F2F2"/>
<path d="M50.9495 60.0001V37.6001H55.7687V60.0001H50.9495Z" fill="#F3F2F2"/>
<path d="M44.1027 60.3203C43.0814 60.3203 42.1453 60.0749 41.2942 59.5843C40.4431 59.0723 39.7623 58.4003 39.2516 57.5683C38.7623 56.7149 38.5176 55.7656 38.5176 54.7203V42.8803C38.5176 41.8349 38.7623 40.8963 39.2516 40.0643C39.7623 39.2109 40.4431 38.5389 41.2942 38.0483C42.1453 37.5363 43.0814 37.2803 44.1027 37.2803C45.1453 37.2803 46.0815 37.5363 46.9113 38.0483C47.7623 38.5389 48.4325 39.2109 48.9219 40.0643C49.4325 40.8963 49.6879 41.8349 49.6879 42.8803V46.4003H44.9644V42.5923C44.9644 42.3576 44.8793 42.1656 44.7091 42.0163C44.5389 41.8456 44.3368 41.7603 44.1027 41.7603C43.89 41.7603 43.6985 41.8456 43.5283 42.0163C43.358 42.1656 43.2729 42.3576 43.2729 42.5923V55.0403C43.2729 55.2536 43.358 55.4456 43.5283 55.6163C43.6985 55.7869 43.89 55.8723 44.1027 55.8723C44.3368 55.8723 44.5389 55.7869 44.7091 55.6163C44.8793 55.4456 44.9644 55.2536 44.9644 55.0403V51.2003H49.6879V54.7203C49.6879 55.7656 49.4325 56.7149 48.9219 57.5683C48.4325 58.4003 47.7623 59.0723 46.9113 59.5843C46.0815 60.0749 45.1453 60.3203 44.1027 60.3203Z" fill="#F3F2F2"/>
<path d="M175.711 28.0001V5.6001H180.467V14.4001H182.158V5.6001H186.882V28.0001H182.158V19.2001H180.467V28.0001H175.711Z" fill="#F3F2F2"/>
<path d="M168.518 28.3203C167.497 28.3203 166.561 28.0749 165.71 27.5843C164.859 27.0723 164.178 26.4003 163.667 25.5683C163.178 24.7149 162.933 23.7656 162.933 22.7203V20.1603H167.688V22.8803C167.688 23.0936 167.763 23.2963 167.912 23.4883C168.082 23.6589 168.284 23.7443 168.518 23.7443C168.752 23.7443 168.954 23.6589 169.125 23.4883C169.295 23.2963 169.38 23.0936 169.38 22.8803C169.38 22.6883 169.359 22.5283 169.316 22.4003C169.273 22.2509 169.178 22.0589 169.029 21.8243L165.199 15.5523C164.922 15.0829 164.603 14.5923 164.242 14.0803C163.88 13.5469 163.571 13.0243 163.316 12.5123C163.061 11.9789 162.933 11.4776 162.933 11.0083V10.8803C162.933 9.83494 163.178 8.89627 163.667 8.06427C164.178 7.21094 164.859 6.53894 165.71 6.04827C166.561 5.53627 167.497 5.28027 168.518 5.28027C169.561 5.28027 170.497 5.53627 171.327 6.04827C172.178 6.53894 172.848 7.21094 173.337 8.06427C173.848 8.89627 174.103 9.83494 174.103 10.8803V13.1523H169.38V10.6883C169.38 10.4536 169.295 10.2509 169.125 10.0803C168.954 9.90961 168.752 9.82427 168.518 9.82427C168.305 9.82427 168.114 9.90961 167.944 10.0803C167.773 10.2509 167.688 10.4536 167.688 10.6883C167.688 10.8376 167.71 10.9656 167.752 11.0723C167.816 11.1576 167.901 11.2963 168.007 11.4883L171.965 17.7923C172.454 18.5816 172.933 19.3709 173.401 20.1603C173.869 20.9283 174.103 21.7389 174.103 22.5923V22.7203C174.103 23.7656 173.848 24.7149 173.337 25.5683C172.848 26.4003 172.178 27.0723 171.327 27.5843C170.497 28.0749 169.561 28.3203 168.518 28.3203Z" fill="#F3F2F2"/>
<path d="M151.121 28.0001L153.833 5.6001H159.578L162.291 28.0001H157.823L157.536 23.8721H155.844L155.621 28.0001H151.121ZM156.099 19.0721H157.312L156.993 12.0001H156.45L156.099 19.0721Z" fill="#F3F2F2"/>
<path d="M140.274 28.0001V5.6001H145.03V23.8721H149.211V28.0001H140.274Z" fill="#F3F2F2"/>
<path d="M130.052 28.0001V5.6001H138.988V10.4001H134.807V14.4001H137.584V19.2001H134.807V28.0001H130.052Z" fill="#F3F2F2"/>
<path d="M112.816 28.0001V5.6001H117.572V23.8721H121.753V28.0001H112.816Z" fill="#F3F2F2"/>
<path d="M100.349 28.0001L103.062 5.6001H108.807L111.52 28.0001H107.052L106.764 23.8721H105.073L104.849 28.0001H100.349ZM105.328 19.0721H106.541L106.222 12.0001H105.679L105.328 19.0721Z" fill="#F3F2F2"/>
<path d="M92.9678 28.0001L90.0955 6.0801V5.6001H94.8508L95.4572 21.6001H95.8721L96.4785 5.6001H101.266V6.0801L98.3934 28.0001H92.9678Z" fill="#F3F2F2"/>
<path d="M83.3633 28.0001V5.6001H88.1825V28.0001H83.3633Z" fill="#F3F2F2"/>
<path d="M73.6168 28.0001V9.7601H70.5848V5.6001H81.436V9.7601H78.404V28.0001H73.6168Z" fill="#F3F2F2"/>
<path d="M64.046 28.3203C63.0247 28.3203 62.0885 28.0749 61.2374 27.5843C60.3864 27.0723 59.7055 26.4003 59.1949 25.5683C58.7055 24.7149 58.4608 23.7656 58.4608 22.7203V20.1603H63.2162V22.8803C63.2162 23.0936 63.2906 23.2963 63.4396 23.4883C63.6098 23.6589 63.8119 23.7443 64.046 23.7443C64.28 23.7443 64.4821 23.6589 64.6523 23.4883C64.8226 23.2963 64.9077 23.0936 64.9077 22.8803C64.9077 22.6883 64.8864 22.5283 64.8438 22.4003C64.8013 22.2509 64.7055 22.0589 64.5566 21.8243L60.7268 15.5523C60.4502 15.0829 60.131 14.5923 59.7693 14.0803C59.4076 13.5469 59.0991 13.0243 58.8438 12.5123C58.5885 11.9789 58.4608 11.4776 58.4608 11.0083V10.8803C58.4608 9.83494 58.7055 8.89627 59.1949 8.06427C59.7055 7.21094 60.3864 6.53894 61.2374 6.04827C62.0885 5.53627 63.0247 5.28027 64.046 5.28027C65.0885 5.28027 66.0247 5.53627 66.8545 6.04827C67.7056 6.53894 68.3758 7.21094 68.8651 8.06427C69.3758 8.89627 69.6311 9.83494 69.6311 10.8803V13.1523H64.9077V10.6883C64.9077 10.4536 64.8226 10.2509 64.6523 10.0803C64.4821 9.90961 64.28 9.82427 64.046 9.82427C63.8332 9.82427 63.6417 9.90961 63.4715 10.0803C63.3013 10.2509 63.2162 10.4536 63.2162 10.6883C63.2162 10.8376 63.2374 10.9656 63.28 11.0723C63.3438 11.1576 63.4289 11.2963 63.5353 11.4883L67.4928 17.7923C67.9822 18.5816 68.4609 19.3709 68.929 20.1603C69.3971 20.9283 69.6311 21.7389 69.6311 22.5923V22.7203C69.6311 23.7656 69.3758 24.7149 68.8651 25.5683C68.3758 26.4003 67.7056 27.0723 66.8545 27.5843C66.0247 28.0749 65.0885 28.3203 64.046 28.3203Z" fill="#F3F2F2"/>
<path d="M48.5809 28.0001V5.6001H57.5171V9.7601H53.3362V14.4001H56.1128V19.2001H53.3362V23.8721H57.5171V28.0001H48.5809Z" fill="#F3F2F2"/>
<path d="M38.358 28.0001V5.6001H47.2943V10.4001H43.1134V14.4001H45.89V19.2001H43.1134V28.0001H38.358Z" fill="#F3F2F2"/>
<mask id="mask0_175_1264" style="mask-type:alpha" maskUnits="userSpaceOnUse" x="4" y="0" width="54" height="62">
<path d="M30.9178 0L36.1738 21.8721L57.6933 15.5L41.4298 31L57.6933 46.5L36.1738 40.1279L30.9178 62L25.6618 40.1279L4.1422 46.5L20.4057 31L4.1422 15.5L25.6618 21.8721L30.9178 0Z" fill="#F4EBD9"/>
</mask>
<g mask="url(#mask0_175_1264)">
<rect width="30.9178" height="63.2237" fill="#F4EBD9"/>
</g>
</svg>
