<svg width="127" height="42" viewBox="0 0 127 42" fill="none" xmlns="http://www.w3.org/2000/svg">
<path d="M98.3433 40.8713C97.6534 40.8713 97.021 40.7064 96.4461 40.3768C95.8711 40.0328 95.4112 39.5813 95.0662 39.0223C94.7357 38.4489 94.5704 37.8111 94.5704 37.1088V35.7973H97.8043V37.3668C97.8043 37.5101 97.8546 37.6319 97.9552 37.7323C98.0702 37.8326 98.1996 37.8828 98.3433 37.8828C98.487 37.8828 98.6092 37.8326 98.7098 37.7323C98.8104 37.6319 98.8608 37.5101 98.8608 37.3668V33.6688C98.8608 33.5254 98.8104 33.4036 98.7098 33.3033C98.6236 33.2029 98.5014 33.1528 98.3433 33.1528C98.1996 33.1528 98.0702 33.2029 97.9552 33.3033C97.8546 33.4036 97.8043 33.5254 97.8043 33.6688V34.5073H94.5704V25.6063H101.901V28.4013H97.8043V30.4868H98.1277C98.2858 30.2431 98.5158 30.0854 98.8176 30.0138C99.1195 29.9421 99.4213 29.9063 99.7231 29.9063C100.384 29.9063 100.88 30.0926 101.211 30.4653C101.556 30.8379 101.793 31.3109 101.922 31.8843C102.052 32.4576 102.116 33.0524 102.116 33.6688V37.1088C102.116 37.8111 101.944 38.4489 101.599 39.0223C101.268 39.5813 100.815 40.0328 100.241 40.3768C99.6656 40.7064 99.0332 40.8713 98.3433 40.8713Z" fill="#2C2A4A"/>
<path d="M86.1486 40.6563V39.3233C86.1486 38.4059 86.2133 37.5674 86.3427 36.8078C86.4864 36.0338 86.7451 35.3171 87.1188 34.6578C87.4925 33.9984 88.0315 33.3821 88.7358 32.8088C89.3969 32.2211 89.8425 31.6979 90.0725 31.2393C90.3168 30.7806 90.439 30.3936 90.439 30.0783V28.9173C90.439 28.7739 90.3887 28.6521 90.2881 28.5518C90.1875 28.4514 90.0653 28.4013 89.9216 28.4013C89.7778 28.4013 89.6485 28.4514 89.5335 28.5518C89.4329 28.6521 89.3826 28.7739 89.3826 28.9173V30.7233H86.1486V29.1538C86.1486 28.4514 86.3139 27.8208 86.6445 27.2618C86.9894 26.6884 87.4494 26.2369 88.0243 25.9073C88.5992 25.5633 89.2317 25.3913 89.9216 25.3913C90.6115 25.3913 91.2439 25.5633 91.8188 25.9073C92.3937 26.2369 92.8465 26.6884 93.1771 27.2618C93.522 27.8208 93.6945 28.4514 93.6945 29.1538V29.2398C93.6945 30.0138 93.6011 30.6731 93.4142 31.2178C93.2418 31.7481 92.9687 32.2426 92.595 32.7013C92.2356 33.1599 91.7757 33.6688 91.2151 34.2278C90.6977 34.7438 90.2881 35.3171 89.9862 35.9478C89.6844 36.5641 89.5335 37.2091 89.5335 37.8828H93.6945V40.6563H86.1486Z" fill="#2C2A4A"/>
<path d="M72.9896 40.6563L74.8222 25.6063H78.7029L80.5355 40.6563H77.5172L77.3231 37.8828H76.1805L76.0295 40.6563H72.9896ZM76.3529 34.6578H77.1722L76.9566 29.9063H76.5901L76.3529 34.6578Z" fill="#2C2A4A"/>
<path d="M62.694 40.6563V25.6063H66.3807L67.3509 32.2928H67.4803L68.4074 25.6063H72.1156V40.6563H69.3129V33.9698H69.1835L68.3427 40.6563H66.467L65.6261 33.9698H65.4968V40.6563H62.694Z" fill="#2C2A4A"/>
<path d="M61.3912 28.4013H51.0425V31.5188H59.5155V34.7438H51.0425V37.8828H61.3912V40.6563H47.8086V25.6063H61.3912V28.4013ZM50.6976 23.6068L58.3297 22.2093L58.5022 23.1338L50.8701 24.5313L50.6976 23.6068Z" fill="#2C2A4A"/>
<path d="M38.9658 40.6563V25.6063H41.5529L43.3855 31.5188H43.7089V25.6063H46.5117V40.6563H43.9245L42.0919 34.7438H41.7685V40.6563H38.9658Z" fill="#2C2A4A"/>
<path d="M34.418 40.6563V25.6063H37.6735V40.6563H34.418Z" fill="#2C2A4A"/>
<path d="M29.7928 40.8713C29.1029 40.8713 28.4705 40.7064 27.8955 40.3768C27.3206 40.0328 26.8607 39.5813 26.5157 39.0223C26.1851 38.4489 26.0198 37.8111 26.0198 37.1088V29.1538C26.0198 28.4514 26.1851 27.8208 26.5157 27.2618C26.8607 26.6884 27.3206 26.2369 27.8955 25.9073C28.4705 25.5633 29.1029 25.3913 29.7928 25.3913C30.4971 25.3913 31.1295 25.5633 31.69 25.9073C32.265 26.2369 32.7177 26.6884 33.0483 27.2618C33.3932 27.8208 33.5657 28.4514 33.5657 29.1538V31.5188H30.3749V28.9603C30.3749 28.8026 30.3174 28.6736 30.2024 28.5733C30.0874 28.4586 29.9509 28.4013 29.7928 28.4013C29.6491 28.4013 29.5197 28.4586 29.4047 28.5733C29.2897 28.6736 29.2322 28.8026 29.2322 28.9603V37.3238C29.2322 37.4671 29.2897 37.5961 29.4047 37.7108C29.5197 37.8254 29.6491 37.8828 29.7928 37.8828C29.9509 37.8828 30.0874 37.8254 30.2024 37.7108C30.3174 37.5961 30.3749 37.4671 30.3749 37.3238V34.7438H33.5657V37.1088C33.5657 37.8111 33.3932 38.4489 33.0483 39.0223C32.7177 39.5813 32.265 40.0328 31.69 40.3768C31.1295 40.7064 30.4971 40.8713 29.7928 40.8713Z" fill="#2C2A4A"/>
<path d="M118.699 19.1563V4.10626H121.911V10.0188H123.054V4.10626H126.245V19.1563H123.054V13.2438H121.911V19.1563H118.699Z" fill="#2C2A4A"/>
<path d="M113.839 19.3713C113.149 19.3713 112.517 19.2064 111.942 18.8768C111.367 18.5328 110.907 18.0813 110.562 17.5223C110.232 16.9489 110.066 16.3111 110.066 15.6088V13.8888H113.279V15.7163C113.279 15.8596 113.329 15.9958 113.43 16.1248C113.545 16.2394 113.681 16.2968 113.839 16.2968C113.997 16.2968 114.134 16.2394 114.249 16.1248C114.364 15.9958 114.421 15.8596 114.421 15.7163C114.421 15.5873 114.407 15.4798 114.378 15.3938C114.35 15.2934 114.285 15.1644 114.184 15.0068L111.597 10.7928C111.41 10.4774 111.195 10.1478 110.95 9.80377C110.706 9.44543 110.498 9.09427 110.325 8.75027C110.153 8.39193 110.066 8.0551 110.066 7.73977V7.65377C110.066 6.95143 110.232 6.32077 110.562 5.76177C110.907 5.18843 111.367 4.73693 111.942 4.40727C112.517 4.06327 113.149 3.89127 113.839 3.89127C114.544 3.89127 115.176 4.06327 115.737 4.40727C116.312 4.73693 116.764 5.18843 117.095 5.76177C117.44 6.32077 117.612 6.95143 117.612 7.65377V9.18027H114.421V7.52477C114.421 7.3671 114.364 7.23093 114.249 7.11627C114.134 7.0016 113.997 6.94427 113.839 6.94427C113.696 6.94427 113.566 7.0016 113.451 7.11627C113.336 7.23093 113.279 7.3671 113.279 7.52477C113.279 7.6251 113.293 7.7111 113.322 7.78277C113.365 7.8401 113.423 7.93327 113.494 8.06227L116.168 12.2978C116.498 12.8281 116.822 13.3584 117.138 13.8888C117.454 14.4048 117.612 14.9494 117.612 15.5228V15.6088C117.612 16.3111 117.44 16.9489 117.095 17.5223C116.764 18.0813 116.312 18.5328 115.737 18.8768C115.176 19.2064 114.544 19.3713 113.839 19.3713Z" fill="#2C2A4A"/>
<path d="M102.087 19.1563L103.919 4.10626H107.8L109.633 19.1563H106.614L106.42 16.3828H105.278L105.127 19.1563H102.087ZM105.45 13.1578H106.269L106.054 8.40626H105.687L105.45 13.1578Z" fill="#2C2A4A"/>
<path d="M94.7599 19.1563V4.10626H97.9723V16.3828H100.797V19.1563H94.7599Z" fill="#2C2A4A"/>
<path d="M87.854 19.1563V4.10626H93.8907V7.33126H91.0664V10.0188H92.9421V13.2438H91.0664V19.1563H87.854Z" fill="#2C2A4A"/>
<path d="M76.2109 19.1563V4.10626H79.4233V16.3828H82.2477V19.1563H76.2109Z" fill="#2C2A4A"/>
<path d="M67.7892 19.1563L69.6218 4.10626H73.5025L75.3351 19.1563H72.3167L72.1227 16.3828H70.98L70.8291 19.1563H67.7892ZM71.1525 13.1578H71.9718L71.7562 8.40626H71.3897L71.1525 13.1578Z" fill="#2C2A4A"/>
<path d="M62.8027 19.1563L60.8623 4.42876V4.10626H64.0747L64.4843 14.8563H64.7646L65.1742 4.10626H68.4082V4.42876L66.4678 19.1563H62.8027Z" fill="#2C2A4A"/>
<path d="M56.3146 19.1563V4.10626H59.5701V19.1563H56.3146Z" fill="#2C2A4A"/>
<path d="M49.7304 19.1563V6.90126H47.6823V4.10626H55.0125V6.90126H52.9644V19.1563H49.7304Z" fill="#2C2A4A"/>
<path d="M43.2651 19.3713C42.5752 19.3713 41.9427 19.2064 41.3678 18.8768C40.7929 18.5328 40.333 18.0813 39.988 17.5223C39.6574 16.9489 39.4921 16.3111 39.4921 15.6088V13.8888H42.7045V15.7163C42.7045 15.8596 42.7548 15.9958 42.8554 16.1248C42.9704 16.2394 43.107 16.2968 43.2651 16.2968C43.4232 16.2968 43.5597 16.2394 43.6747 16.1248C43.7897 15.9958 43.8472 15.8596 43.8472 15.7163C43.8472 15.5873 43.8328 15.4798 43.8041 15.3938C43.7753 15.2934 43.7106 15.1644 43.61 15.0068L41.0229 10.7928C40.836 10.4774 40.6204 10.1478 40.3761 9.80377C40.1317 9.44543 39.9233 9.09427 39.7508 8.75027C39.5784 8.39193 39.4921 8.0551 39.4921 7.73977V7.65377C39.4921 6.95143 39.6574 6.32077 39.988 5.76177C40.333 5.18843 40.7929 4.73693 41.3678 4.40727C41.9427 4.06327 42.5752 3.89127 43.2651 3.89127C43.9694 3.89127 44.6018 4.06327 45.1623 4.40727C45.7372 4.73693 46.19 5.18843 46.5206 5.76177C46.8655 6.32077 47.038 6.95143 47.038 7.65377V9.18027H43.8472V7.52477C43.8472 7.3671 43.7897 7.23093 43.6747 7.11627C43.5597 7.0016 43.4232 6.94427 43.2651 6.94427C43.1213 6.94427 42.992 7.0016 42.877 7.11627C42.762 7.23093 42.7045 7.3671 42.7045 7.52477C42.7045 7.6251 42.7189 7.7111 42.7476 7.78277C42.7908 7.8401 42.8483 7.93327 42.9201 8.06227L45.5935 12.2978C45.9241 12.8281 46.2475 13.3584 46.5637 13.8888C46.8799 14.4048 47.038 14.9494 47.038 15.5228V15.6088C47.038 16.3111 46.8655 16.9489 46.5206 17.5223C46.19 18.0813 45.7372 18.5328 45.1623 18.8768C44.6018 19.2064 43.9694 19.3713 43.2651 19.3713Z" fill="#2C2A4A"/>
<path d="M32.8179 19.1563V4.10626H38.8546V6.90126H36.0303V10.0188H37.906V13.2438H36.0303V16.3828H38.8546V19.1563H32.8179Z" fill="#2C2A4A"/>
<path d="M25.912 19.1563V4.10626H31.9488V7.33126H29.1244V10.0188H31.0001V13.2438H29.1244V19.1563H25.912Z" fill="#2C2A4A"/>
<mask id="mask0_175_1222" style="mask-type:alpha" maskUnits="userSpaceOnUse" x="2" y="0" width="37" height="42">
<path d="M20.8859 0.34375L24.4366 15.0391L38.9737 10.7578L27.9872 21.1719L38.9737 31.5859L24.4366 27.3047L20.8859 42L17.3353 27.3047L2.79819 31.5859L13.7847 21.1719L2.79819 10.7578L17.3353 15.0391L20.8859 0.34375Z" fill="#F4EBD9"/>
</mask>
<g mask="url(#mask0_175_1222)">
<rect y="0.34375" width="20.8859" height="42.4784" fill="#2C2A4A"/>
</g>
</svg>
