<svg width="24" height="24" viewBox="0 0 24 24" fill="none" xmlns="http://www.w3.org/2000/svg">
<path d="M23.4985 6.004C23.2225 4.92899 22.4092 4.08236 21.3767 3.79504C19.505 3.27295 12 3.27295 12 3.27295C12 3.27295 4.49503 3.27295 2.62335 3.79504C1.59077 4.0824 0.777524 4.92899 0.501503 6.004C0 7.95249 0 12.0179 0 12.0179C0 12.0179 0 16.0833 0.501503 18.0317C0.777524 19.1067 1.59077 19.918 2.62335 20.2054C4.49503 20.7275 12 20.7275 12 20.7275C12 20.7275 19.505 20.7275 21.3767 20.2054C22.4092 19.918 23.2225 19.1067 23.4985 18.0317C24 16.0833 24 12.0179 24 12.0179C24 12.0179 24 7.95249 23.4985 6.004ZM9.54543 15.7089V8.32681L15.8182 12.0179L9.54543 15.7089Z" fill="#F3F2F2"/>
</svg>
